<?xml version="1.0" encoding="UTF-8" standalone="no"?>
<!DOCTYPE svg PUBLIC "-//W3C//DTD SVG 1.1//EN" "http://www.w3.org/Graphics/SVG/1.1/DTD/svg11.dtd">
<svg width="100%" height="100%" viewBox="0 0 1318 2056" version="1.1" xmlns="http://www.w3.org/2000/svg" xmlns:xlink="http://www.w3.org/1999/xlink" xml:space="preserve" xmlns:serif="http://www.serif.com/" style="fill-rule:evenodd;clip-rule:evenodd;stroke-linecap:round;stroke-linejoin:round;stroke-miterlimit:1.5;">
    <g transform="matrix(1,0,0,1,-5238.05,-12.2435)">
        <g id="Artboard1" transform="matrix(0.53111,0,0,0.586079,5238.05,12.2435)">
            <rect x="0" y="0" width="2480.32" height="3507.87" style="fill:none;"/>
            <g transform="matrix(2.12653,0,0,1.77583,-3466.57,-8275.92)">
                <rect x="1630.15" y="4660.32" width="1166.33" height="1975.31" style="fill:rgb(235,235,211);"/>
            </g>
            <g transform="matrix(0.505973,0,0,1.09431,65.2221,420.195)">
                <rect x="136.321" y="510.8" width="2997.09" height="573.089" style="fill:rgb(166,201,203);"/>
                <path d="M3133.41,510.8L136.321,510.8L136.321,1083.89L3133.41,1083.89L3133.41,510.8ZM3086.89,530.29L3086.89,1064.4C3086.89,1064.4 182.836,1064.4 182.836,1064.4C182.836,1064.4 182.836,530.29 182.836,530.29C182.836,530.29 3086.89,530.29 3086.89,530.29L3086.89,530.29Z"/>
            </g>
            <g transform="matrix(0.0933383,0,0,0.445752,135.527,2195.79)">
                <rect x="136.321" y="510.8" width="2997.09" height="573.089" style="fill:rgb(166,201,203);"/>
                <path d="M3133.41,510.8L136.321,510.8L136.321,1083.89L3133.41,1083.89L3133.41,510.8ZM2881.25,558.647L2881.25,1036.04C2881.25,1036.04 388.474,1036.04 388.474,1036.04C388.474,1036.04 388.474,558.647 388.474,558.647L2881.25,558.647Z"/>
            </g>
            <g transform="matrix(0.0933383,0,0,0.445752,135.527,2707.19)">
                <rect x="136.321" y="510.8" width="2997.09" height="573.089" style="fill:rgb(216,209,150);"/>
                <path d="M3133.41,510.8L136.321,510.8L136.321,1083.89L3133.41,1083.89L3133.41,510.8ZM2881.25,558.647L2881.25,1036.04C2881.25,1036.04 388.474,1036.04 388.474,1036.04C388.474,1036.04 388.474,558.647 388.474,558.647L2881.25,558.647Z"/>
            </g>
            <g transform="matrix(0.543334,7.22967e-17,3.98458e-16,0.533128,-722.6,523.401)">
                <path d="M2675.76,2791.33L2675.76,2714.86L2890.76,2714.86L2890.76,2643.85L3009.05,2753.1L2890.76,2862.35L2890.76,2791.33L2675.76,2791.33Z"/>
            </g>
            <g transform="matrix(1.25665,0,0,1.18486,-3847.29,-817.024)">
                <path d="M3924.03,1071.86C3924.03,1071.86 3996.69,902.882 4179.28,903.417C4330.15,903.86 4423.38,1064.12 4423.38,1064.12" style="fill:none;stroke:black;stroke-width:61.18px;"/>
            </g>
            <g transform="matrix(0.731511,0,0,1.08824,34.3482,1028.83)">
                <rect x="136.321" y="510.8" width="2997.09" height="573.089" style="fill:rgb(218,209,145);"/>
                <path d="M3133.41,510.8L136.321,510.8L136.321,1083.89L3133.41,1083.89L3133.41,510.8ZM3101.23,530.399L3101.23,1064.29C2799.48,1064.29 470.245,1064.29 168.494,1064.29C168.494,1064.29 168.494,530.399 168.494,530.399C168.494,530.399 3101.23,530.399 3101.23,530.399L3101.23,530.399Z"/>
            </g>
            <g transform="matrix(1.88285,0,0,1.70626,-6491.24,-1558.87)">
                <path d="M4039.45,1293.78L3999.16,1357.56" style="fill:none;stroke:black;stroke-width:12.5px;stroke-linecap:square;stroke-linejoin:miter;stroke-dasharray:0,12.5,12.5,0;stroke-dashoffset:50;"/>
            </g>
            <g transform="matrix(0.88479,-1.49652,1.65271,0.771919,-4011.5,5701.16)">
                <path d="M4039.45,1293.78L3994.13,1353.48" style="fill:none;stroke:black;stroke-width:12.51px;stroke-linecap:square;stroke-linejoin:miter;stroke-dasharray:0,12.51,12.51,0;stroke-dashoffset:50.04;"/>
            </g>
            <g transform="matrix(0.88479,-1.49652,1.65271,0.771919,-3907.92,5924.19)">
                <path d="M4039.45,1293.78L3994.13,1353.48" style="fill:none;stroke:black;stroke-width:12.51px;stroke-linecap:square;stroke-linejoin:miter;stroke-dasharray:0,12.51,12.51,0;stroke-dashoffset:50.04;"/>
            </g>
            <g transform="matrix(0.88479,-1.49652,1.65271,0.771919,-3805.94,6146.71)">
                <path d="M4039.45,1293.78L3994.13,1353.48" style="fill:none;stroke:black;stroke-width:12.51px;stroke-linecap:square;stroke-linejoin:miter;stroke-dasharray:0,12.51,12.51,0;stroke-dashoffset:50.04;"/>
            </g>
            <g transform="matrix(0.700445,-0.63475,-0.415994,-0.376978,-180.748,4422.94)">
                <path d="M2675.76,2791.33L2675.76,2714.86L2944.17,2714.86L2944.17,2643.85L3009.05,2753.1L2944.17,2862.35L2944.17,2791.33L2675.76,2791.33Z"/>
            </g>
            <g transform="matrix(0.88479,-1.49652,1.65271,0.771919,-3701.65,6369.12)">
                <path d="M4039.45,1293.78L3994.13,1353.48" style="fill:none;stroke:black;stroke-width:12.51px;stroke-linecap:square;stroke-linejoin:miter;stroke-dasharray:0,12.51,12.51,0;stroke-dashoffset:50.04;"/>
            </g>
            <g transform="matrix(1.15896,-0.963267,1.29388,0.0739884,-4233,5331.25)">
                <path d="M4039.45,1293.78L3994.13,1353.48" style="fill:none;stroke:black;stroke-width:12.6px;stroke-linecap:square;stroke-linejoin:miter;stroke-dasharray:0,12.6,12.6,0;stroke-dashoffset:50.4;"/>
            </g>
            <g transform="matrix(1.88285,0,0,1.70626,-6651.69,-1298.46)">
                <path d="M4039.45,1293.78L4025.59,1315.73" style="fill:none;stroke:black;stroke-width:12.5px;stroke-linecap:square;stroke-linejoin:miter;stroke-dasharray:0,12.5,12.5,0;stroke-dashoffset:50;"/>
            </g>
            <g transform="matrix(0.244464,0,0,0.212482,745.955,1196.67)">
                <path d="M2212.43,1901.33L2212.43,2965.51" style="fill:none;stroke:black;stroke-width:98.26px;stroke-linecap:square;"/>
            </g>
            <g transform="matrix(0.155067,0,0,0.125668,943.739,1824.09)">
                <path d="M2212.43,1901.33L2212.43,2965.51" style="fill:none;stroke:black;stroke-width:160px;stroke-linecap:square;"/>
            </g>
            <g transform="matrix(1.20245,0,0,1.08967,-2627.03,-963.676)">
                <path d="M2981.78,2637.79C2981.78,2637.79 3088.71,2571.71 3253.16,2568.07C3430.21,2564.15 3522.67,2637.79 3522.67,2637.79" style="fill:none;stroke:black;stroke-width:13.05px;"/>
            </g>
            <g transform="matrix(0.896246,0,0,0.812187,-1631.36,-30.2012)">
                <path d="M2981.78,2637.79C2981.78,2637.79 3088.71,2571.71 3253.16,2568.07C3430.21,2564.15 3522.67,2637.79 3522.67,2637.79" style="fill:none;stroke:black;stroke-width:17.51px;"/>
            </g>
            <g transform="matrix(-1.25665,1.45104e-16,-1.53895e-16,-1.18486,6652.69,1698.22)">
                <path d="M3931.19,1051.88C3931.19,1051.88 3998.66,878.041 4181.25,878.576C4384.63,879.172 4431.89,1043.92 4431.89,1043.92" style="fill:none;stroke:black;stroke-width:61.18px;"/>
            </g>
            <g transform="matrix(1.52905,0,0,1.38564,-999.817,-3126.16)">
                <circle cx="1570.79" cy="2593.69" r="98.711"/>
            </g>
            <g transform="matrix(0.69041,0,0,0.638424,413.408,-1269.22)">
                <circle cx="1570.79" cy="2593.69" r="98.711" style="fill:white;"/>
            </g>
            <g transform="matrix(1.88285,0,0,1.70626,-2869.51,-8006.05)">
                <text x="1592.81px" y="5133.99px" style="font-family:'NotoSansJP-Regular', 'Noto Sans JP', sans-serif;font-size:50px;">R<tspan x="1624.06px 1651.21px " y="5133.99px 5133.99px ">eg</tspan>ular Vie<tspan x="1853.21px " y="5133.99px ">w</tspan></text>
            </g>
            <g transform="matrix(1.88285,0,0,1.70626,-2189.04,-7342.4)">
                <text x="1592.81px" y="5134.09px" style="font-family:'NotoSansJP-Bold', 'Noto Sans JP', sans-serif;font-weight:700;font-size:50px;">Mark<tspan x="1715.66px 1744.11px " y="5134.09px 5134.09px ">et</tspan>plac<tspan x="1867.46px " y="5134.09px ">e</tspan></text>
            </g>
            <g transform="matrix(1.88285,0,0,1.70626,-1999.52,-7628.99)">
                <text x="1592.81px" y="5134.09px" style="font-family:'NotoSansJP-Bold', 'Noto Sans JP', sans-serif;font-weight:700;font-size:50px;">D<tspan x="1627.91px 1659.36px " y="5134.09px 5134.09px ">AO</tspan></text>
            </g>
            <g transform="matrix(1.88285,0,0,1.70626,-2714.78,-6946.76)">
                <text x="1592.81px" y="5134.09px" style="font-family:'NotoSansJP-Bold', 'Noto Sans JP', sans-serif;font-weight:700;font-size:50px;">R<tspan x="1626.51px " y="5134.09px ">a</tspan>in Contr<tspan x="1852.11px 1881.66px 1907.41px 1927.81px " y="5134.09px 5134.09px 5134.09px 5134.09px ">acts</tspan></text>
            </g>
            <g transform="matrix(1.88285,0,0,1.70626,-2438.3,-6157.96)">
                <text x="1592.81px" y="5134.09px" style="font-family:'NotoSansJP-Bold', 'Noto Sans JP', sans-serif;font-weight:700;font-size:50px;">= Wor<tspan x="1731.86px " y="5134.09px ">d</tspan>s, T<tspan x="1845.21px " y="5134.09px ">r</tspan>us<tspan x="1922.46px 1943.46px 1986.21px " y="5134.09px 5134.09px 5134.09px ">two</tspan>rthy lay<tspan x="2205.96px " y="5134.09px ">e</tspan>r</text>
            </g>
            <g transform="matrix(1.88285,0,0,1.70626,-2439.14,-5670.19)">
                <text x="1592.81px" y="5134.09px" style="font-family:'NotoSansJP-Bold', 'Noto Sans JP', sans-serif;font-weight:700;font-size:50px;">= Ac<tspan x="1691.41px " y="5134.09px ">t</tspan>ions, T<tspan x="1872.11px 1892.36px " y="5134.09px 5134.09px ">ra</tspan>nsp<tspan x="2010.21px 2039.76px 2060.96px " y="5134.09px 5134.09px 5134.09px ">are</tspan>nc<tspan x="2148.56px " y="5134.09px ">y</tspan> lay<tspan x="2262.21px 2291.26px 2308.56px " y="5134.09px 5134.09px 5134.09px ">er.</tspan></text>
            </g>
            <g transform="matrix(1.88285,0,0,1.70626,-2364.89,-5549.72)">
                <text x="1592.81px" y="5134.09px" style="font-family:'NotoSansJP-Bold', 'Noto Sans JP', sans-serif;font-weight:700;font-size:50px;">All da<tspan x="1728.51px 1748.36px " y="5134.09px 5134.09px ">ta</tspan> r<tspan x="1810.46px " y="5134.09px ">e</tspan>sides her<tspan x="2059.06px " y="5134.09px ">e</tspan></text>
            </g>
            <g transform="matrix(1.88285,0,0,1.70626,-1962.29,-6769.67)">
                <text x="1592.81px" y="5134.09px" style="font-family:'NotoSansJP-Bold', 'Noto Sans JP', sans-serif;font-weight:700;font-size:50px;">T<tspan x="1621.61px " y="5134.09px ">r</tspan>us<tspan x="1698.86px " y="5134.09px ">t</tspan> V<tspan x="1760.31px " y="5134.09px ">a</tspan>ult</text>
            </g>
            <g transform="matrix(1.88285,0,0,1.70626,-2714.78,-6743.47)">
                <text x="1592.81px" y="5133.99px" style="font-family:'NotoSansJP-Regular', 'Noto Sans JP', sans-serif;font-size:50px;">Pr<tspan x="1643.26px " y="5133.99px ">o</tspan>duc<tspan x="1759.16px " y="5133.99px ">e</tspan>s</text>
            </g>
            <g transform="matrix(1.88285,0,0,1.70626,-1297.45,-6844.46)">
                <text x="1592.81px" y="5133.99px" style="font-family:'NotoSansJP-Regular', 'Noto Sans JP', sans-serif;font-size:50px;">(Gild lab</text>
            </g>
            <g transform="matrix(1.88285,0,0,1.70626,-1298.96,-6723.52)">
                <text x="1592.81px" y="5133.99px" style="font-family:'NotoSansJP-Regular', 'Noto Sans JP', sans-serif;font-size:50px;">c<tspan x="1617.06px " y="5133.99px ">o</tspan>ntr<tspan x="1714.81px 1743.01px 1767.91px 1786.21px " y="5133.99px 5133.99px 5133.99px 5133.99px ">acts</tspan>)</text>
            </g>
            <g transform="matrix(1.88285,0,0,1.70626,-1294.45,-6968.96)">
                <text x="1592.81px" y="5134.09px" style="font-family:'NotoSansJP-Bold', 'Noto Sans JP', sans-serif;font-weight:700;font-size:50px;">SFT</text>
            </g>
            <g transform="matrix(-0.700445,-0.63475,0.415994,-0.376978,2367.39,4422.94)">
                <path d="M2675.76,2791.33L2675.76,2714.86L2944.17,2714.86L2944.17,2643.85L3009.05,2753.1L2944.17,2862.35L2944.17,2791.33L2675.76,2791.33Z"/>
            </g>
            <g transform="matrix(1.88285,0,0,1.70626,-1933.21,-7491.48)">
                <text x="1592.81px" y="5134.09px" style="font-family:'NotoSansJP-Bold', 'Noto Sans JP', sans-serif;font-weight:700;font-size:50px;">+</text>
            </g>
        </g>
    </g>
</svg>
