<?xml version="1.0" encoding="UTF-8" standalone="no"?>
<!DOCTYPE svg PUBLIC "-//W3C//DTD SVG 1.1//EN" "http://www.w3.org/Graphics/SVG/1.1/DTD/svg11.dtd">
<svg width="100%" height="100%" viewBox="0 0 4707 2782" version="1.1" xmlns="http://www.w3.org/2000/svg" xmlns:xlink="http://www.w3.org/1999/xlink" xml:space="preserve" xmlns:serif="http://www.serif.com/" style="fill-rule:evenodd;clip-rule:evenodd;stroke-linecap:round;stroke-linejoin:round;stroke-miterlimit:1.5;">
    <g id="Artboard1" transform="matrix(1.89767,0,0,0.792961,0,0)">
        <rect x="0" y="0" width="2480.32" height="3507.87" style="fill:none;"/>
        <g transform="matrix(0.827272,0,0,2.10679,-111.877,-1076.11)">
            <rect x="136.321" y="510.8" width="2997.09" height="573.089" style="fill:rgb(234,234,210);"/>
        </g>
        <g transform="matrix(0.443924,0,0,1.10536,-141.187,-467.827)">
            <path d="M3924.03,1071.86C3924.03,1071.86 3996.69,902.882 4179.28,903.417C4330.15,903.86 4423.38,1064.12 4423.38,1064.12" style="fill:none;stroke:black;stroke-width:48.47px;"/>
        </g>
        <g transform="matrix(-0.443924,1.35368e-16,-5.43651e-17,-1.10536,3568.04,1878.64)">
            <path d="M3931.19,1051.88C3931.19,1051.88 3998.66,878.041 4181.25,878.576C4384.63,879.172 4431.89,1043.92 4431.89,1043.92" style="fill:none;stroke:black;stroke-width:48.47px;"/>
        </g>
        <g transform="matrix(0.487339,0,0,1.17597,208.729,1173.22)">
            <rect x="136.321" y="510.8" width="2997.09" height="573.089" style="fill:rgb(166,201,203);"/>
            <path d="M3133.41,510.8L136.321,510.8L136.321,1083.89L3133.41,1083.89L3133.41,510.8ZM3119.89,524.205L3119.89,1070.48C3119.89,1070.48 149.837,1070.48 149.837,1070.48C149.837,1070.48 149.837,524.205 149.837,524.205L3119.89,524.205Z"/>
        </g>
        <g transform="matrix(0.687886,0,0,1.16944,181.293,1835.21)">
            <rect x="136.321" y="510.8" width="2997.09" height="573.089" style="fill:rgb(218,209,145);"/>
            <path d="M3133.41,510.8L136.321,510.8L136.321,1083.89L3133.41,1083.89L3133.41,510.8ZM3123.83,524.279L3123.83,1070.41C3123.83,1070.41 145.896,1070.41 145.896,1070.41C145.896,1070.41 145.896,609.543 145.896,524.279L3123.83,524.279Z"/>
        </g>
        <g transform="matrix(0.512721,0,0,1.22702,-460.564,-546.35)">
            <path d="M2212.43,1901.33L2212.43,2965.51" style="fill:none;stroke:black;stroke-width:12.85px;stroke-linecap:square;stroke-linejoin:miter;"/>
        </g>
        <g transform="matrix(0.0648344,0,0,0.155158,1080.94,2631)">
            <path d="M2212.43,1901.33L2212.43,2965.51" style="fill:none;stroke:black;stroke-width:101.6px;stroke-linecap:square;stroke-linejoin:miter;"/>
        </g>
        <g transform="matrix(0.0824305,0,0,0.197268,1042.01,2077.19)">
            <path d="M2212.43,1901.33L2212.43,2965.51" style="fill:none;stroke:black;stroke-width:79.91px;"/>
        </g>
        <g transform="matrix(0.526962,0,0,1.2611,-492.645,-572.142)">
            <path d="M2981.78,2637.79C2981.78,2637.79 3088.71,2571.71 3253.16,2568.07C3430.21,2564.15 3522.67,2637.79 3522.67,2637.79" style="fill:none;stroke:black;stroke-width:8.33px;"/>
        </g>
        <g transform="matrix(0.392772,0,0,0.93996,-56.3022,508.188)">
            <path d="M2981.78,2637.79C2981.78,2637.79 3088.71,2571.71 3253.16,2568.07C3430.21,2564.15 3522.67,2637.79 3522.67,2637.79" style="fill:none;stroke:black;stroke-width:11.18px;"/>
        </g>
        <g transform="matrix(0.540154,0,0,1.29267,864.713,-2622.02)">
            <circle cx="1570.79" cy="2593.69" r="98.711"/>
        </g>
        <g transform="matrix(0.243894,0,0,0.595586,1363.95,-889.681)">
            <circle cx="1570.79" cy="2593.69" r="98.711" style="fill:white;"/>
        </g>
        <g transform="matrix(0.526962,0,0,1.2611,173.676,-538.809)">
            <text x="239.619px" y="607.866px" style="font-family:'NotoSansJP-Bold', 'Noto Sans JP', sans-serif;font-weight:700;font-size:75px;">SFT E<tspan x="436.869px 478.119px " y="607.866px 607.866px ">xa</tspan>mple</text>
            <text x="239.619px" y="857.866px" style="font-family:'NotoSansJP-Regular', 'Noto Sans JP', sans-serif;font-size:75px;">P<tspan x="284.994px 326.544px 355.344px " y="857.866px 857.866px 857.866px ">ers</tspan>onal judg<tspan x="716.019px " y="857.866px ">e</tspan>ment<tspan x="941.844px " y="857.866px ">s</tspan> dir<tspan x="1089.14px 1130.69px 1168.04px 1195.19px " y="857.866px 857.866px 857.866px 857.866px ">ecte</tspan>d b<tspan x="1345.19px " y="857.866px ">a</tspan>sed upon</text>
            <text x="239.619px" y="982.866px" style="font-family:'NotoSansJP-Regular', 'Noto Sans JP', sans-serif;font-size:75px;">ac<tspan x="318.294px 354.669px " y="982.866px 982.866px ">co</tspan>unt<tspan x="517.944px " y="982.866px ">a</tspan>bility<tspan x="733.719px " y="982.866px ">,</tspan> no<tspan x="861.219px " y="982.866px ">t</tspan> per<tspan x="1023.14px " y="982.866px ">s</tspan>uasion. Bo<tspan x="1424.02px " y="982.866px ">t</tspan>h lay<tspan x="1617.07px 1658.62px 1687.42px " y="982.866px 982.866px 982.866px ">ers</tspan> ar<tspan x="1809.89px " y="982.866px ">e</tspan></text>
            <text x="239.619px" y="1107.87px" style="font-family:'NotoSansJP-Regular', 'Noto Sans JP', sans-serif;font-size:75px;">ac<tspan x="318.294px 354.669px " y="1107.87px 1107.87px ">ce</tspan>ssible. This is unique and highly sought aft<tspan x="1867.12px " y="1107.87px ">e</tspan>r b<tspan x="2000.62px " y="1107.87px ">y</tspan></text>
            <text x="239.619px" y="1232.87px" style="font-family:'NotoSansJP-Regular', 'Noto Sans JP', sans-serif;font-size:75px;">tr<tspan x="294.969px " y="1232.87px ">a</tspan>der<tspan x="454.119px " y="1232.87px ">s</tspan>.</text>
        </g>
        <g transform="matrix(0.526962,0,0,1.2611,-348.173,-588.314)">
            <text x="2706.17px" y="1631.48px" style="font-family:'NotoSansJP-Bold', 'Noto Sans JP', sans-serif;font-weight:700;font-size:75px;">R<tspan x="2756.42px 2799.1px " y="1631.48px 1631.48px ">eg</tspan>ular Vie<tspan x="3121.75px " y="1631.48px ">w</tspan></text>
        </g>
        <g transform="matrix(0.526962,0,0,1.2611,524.064,-588.314)">
            <text x="2706.17px" y="1631.48px" style="font-family:'NotoSansJP-Bold', 'Noto Sans JP', sans-serif;font-weight:700;font-size:75px;">SFT Vie<tspan x="2973.17px " y="1631.48px ">w</tspan></text>
        </g>
        <g transform="matrix(0.526962,0,0,1.2611,553.762,672.074)">
            <text x="2706.17px" y="1631.48px" style="font-family:'NotoSansJP-Bold', 'Noto Sans JP', sans-serif;font-weight:700;font-size:75px;">All da<tspan x="2909.72px 2939.5px " y="1631.48px 1631.48px ">ta</tspan> r<tspan x="3032.65px " y="1631.48px ">e</tspan>sides</text>
        </g>
        <g transform="matrix(0.526962,0,0,1.2611,101.465,675.1)">
            <text x="2706.17px" y="1631.48px" style="font-family:'NotoSansJP-Bold', 'Noto Sans JP', sans-serif;font-weight:700;font-size:75px;">SFT</text>
            <text x="2706.17px" y="1781.48px" style="font-family:'NotoSansJP-Regular', 'Noto Sans JP', sans-serif;font-size:75px;">(gild lab c<tspan x="3042.25px " y="1781.48px ">o</tspan>ntr<tspan x="3188.87px 3231.17px 3268.52px 3295.97px " y="1781.48px 1781.48px 1781.48px 1781.48px ">acts</tspan>)</text>
        </g>
        <g transform="matrix(0.526962,0,0,1.2611,-713.171,673.52)">
            <text x="2706.17px" y="1631.48px" style="font-family:'NotoSansJP-Bold', 'Noto Sans JP', sans-serif;font-weight:700;font-size:75px;">R<tspan x="2756.72px " y="1631.48px ">a</tspan>in Contr<tspan x="3095.12px 3139.45px 3178.07px 3208.67px " y="1631.48px 1631.48px 1631.48px 1631.48px ">acts</tspan></text>
            <text x="2706.17px" y="1781.48px" style="font-family:'NotoSansJP-Regular', 'Noto Sans JP', sans-serif;font-size:75px;">Pr<tspan x="2781.85px " y="1781.48px ">o</tspan>duc<tspan x="2955.7px " y="1781.48px ">e</tspan>s</text>
        </g>
        <g transform="matrix(0.526962,0,0,1.2611,-1084.8,673.52)">
            <text x="2706.17px" y="1631.48px" style="font-family:'NotoSansJP-Bold', 'Noto Sans JP', sans-serif;font-weight:700;font-size:75px;">T<tspan x="2749.37px 2779.75px " y="1631.48px 1631.48px ">ra</tspan>nsp<tspan x="2956.52px 3000.85px 3032.65px " y="1631.48px 1631.48px 1631.48px ">are</tspan>nc<tspan x="3164.05px " y="1631.48px ">y</tspan></text>
            <text x="2706.17px" y="1781.48px" style="font-family:'NotoSansJP-Regular', 'Noto Sans JP', sans-serif;font-size:75px;">Ac<tspan x="2788.07px 2824.45px " y="1781.48px 1781.48px ">co</tspan>unt<tspan x="2987.72px " y="1781.48px ">a</tspan>bility</text>
        </g>
        <g transform="matrix(0.526962,0,0,1.2611,-1186.2,1309.99)">
            <text x="2706.17px" y="1714.81px" style="font-family:'NotoSansJP-Regular', 'Noto Sans JP', sans-serif;font-size:83.333px;">If a public lay<tspan x="3217.34px " y="1714.81px ">e</tspan>r w<tspan x="3380.42px " y="1714.81px ">a</tspan>s added t<tspan x="3782.09px " y="1714.81px ">o</tspan>  c<tspan x="3910.34px " y="1714.81px ">o</tspan>mp<tspan x="4088.34px " y="1714.81px ">a</tspan>nies, ac<tspan x="4423.59px 4464.01px " y="1714.81px 1714.81px ">co</tspan>unt<tspan x="4645.42px " y="1714.81px ">a</tspan>bility w<tspan x="4973.51px " y="1714.81px ">o</tspan>uld tr<tspan x="5231.51px " y="1714.81px ">e</tspan>nd.</text>
        </g>
        <g transform="matrix(0.526962,0,0,1.2611,-1072.97,93.5703)">
            <text x="2706.17px" y="1631.48px" style="font-family:'NotoSansJP-Bold', 'Noto Sans JP', sans-serif;font-weight:700;font-size:75px;">T<tspan x="2749.37px " y="1631.48px ">r</tspan>us<tspan x="2865.25px 2896.75px 2960.87px " y="1631.48px 1631.48px 1631.48px ">two</tspan>rthy</text>
        </g>
        <g transform="matrix(0.526962,0,0,1.2611,-1343.18,95.5251)">
            <text x="2706.17px" y="1631.48px" style="font-family:'NotoSansJP-Bold', 'Noto Sans JP', sans-serif;font-weight:700;font-size:75px;">Wor<tspan x="2853.55px " y="1631.48px ">d</tspan>s</text>
        </g>
        <g transform="matrix(0.526962,0,0,1.2611,-1352.72,761.238)">
            <text x="2706.17px" y="1631.48px" style="font-family:'NotoSansJP-Bold', 'Noto Sans JP', sans-serif;font-weight:700;font-size:75px;">Ac<tspan x="2792.87px " y="1631.48px ">t</tspan>ions</text>
        </g>
        <g transform="matrix(0.526962,0,0,1.2611,-310.802,785.818)">
            <text x="2706.17px" y="1631.48px" style="font-family:'NotoSansJP-Bold', 'Noto Sans JP', sans-serif;font-weight:700;font-size:75px;">T<tspan x="2749.37px " y="1631.48px ">r</tspan>us<tspan x="2865.25px " y="1631.48px ">t</tspan> V<tspan x="2957.42px " y="1631.48px ">a</tspan>ult</text>
        </g>
        <g transform="matrix(0.526962,0,0,1.2611,-329.558,225.359)">
            <text x="2706.17px" y="1631.48px" style="font-family:'NotoSansJP-Bold', 'Noto Sans JP', sans-serif;font-weight:700;font-size:75px;">Mark<tspan x="2890.45px 2933.12px " y="1631.48px 1631.48px ">et</tspan>plac<tspan x="3118.15px " y="1631.48px ">e</tspan></text>
        </g>
        <g transform="matrix(0.526962,0,0,1.2611,-261.949,-100.877)">
            <text x="2706.17px" y="1631.48px" style="font-family:'NotoSansJP-Bold', 'Noto Sans JP', sans-serif;font-weight:700;font-size:75px;">D<tspan x="2758.82px 2806px " y="1631.48px 1631.48px ">AO</tspan></text>
        </g>
        <g transform="matrix(0.526962,0,0,1.2611,-230.649,69.4822)">
            <text x="2706.17px" y="1631.48px" style="font-family:'NotoSansJP-Bold', 'Noto Sans JP', sans-serif;font-weight:700;font-size:75px;">+</text>
        </g>
        <g transform="matrix(-0.47723,-0.819847,0.0960177,-0.320099,2537.14,5668.28)">
            <path d="M2675.76,2791.33L2675.76,2714.86L2978.43,2714.86L2978.43,2643.85L3009.05,2753.1L2978.43,2862.35L2978.43,2791.33L2675.76,2791.33Z"/>
        </g>
        <g transform="matrix(0.430254,-0.739145,-0.0960177,-0.320099,16.5094,5425.45)">
            <path d="M2675.76,2791.33L2675.76,2714.86L2975.09,2714.86L2975.09,2643.85L3009.05,2753.1L2975.09,2862.35L2975.09,2791.33L2675.76,2791.33Z"/>
        </g>
        <g transform="matrix(0.464507,1.06869e-16,3.59711e-16,-0.394036,-327.041,3980.16)">
            <path d="M2675.76,2791.33L2675.76,2714.86L2970.32,2714.86L2970.32,2643.85L3009.05,2753.1L2970.32,2862.35L2970.32,2791.33L2675.76,2791.33Z"/>
        </g>
        <g transform="matrix(0.526962,0,0,1.2611,-492.645,-623.859)">
            <path d="M4039.45,1293.78L3999.16,1357.56" style="fill:none;stroke:black;stroke-width:12.5px;stroke-linecap:square;stroke-linejoin:miter;stroke-dasharray:0,12.5,12.5,0;stroke-dashoffset:50;"/>
        </g>
        <g transform="matrix(0.526962,0,0,1.2611,-537.552,-431.384)">
            <path d="M4039.45,1293.78L3999.16,1357.56" style="fill:none;stroke:black;stroke-width:12.5px;stroke-linecap:square;stroke-linejoin:miter;stroke-dasharray:0,12.5,12.5,0;stroke-dashoffset:50;"/>
        </g>
        <g transform="matrix(0.526962,0,0,1.2611,-584.569,-257.137)">
            <path d="M4039.45,1293.78L3999.16,1357.56" style="fill:none;stroke:black;stroke-width:12.5px;stroke-linecap:square;stroke-linejoin:miter;stroke-dasharray:0,12.5,12.5,0;stroke-dashoffset:50;"/>
        </g>
        <g transform="matrix(0.526962,0,0,1.2611,-628.885,-84.7081)">
            <path d="M4039.45,1293.78L3999.16,1357.56" style="fill:none;stroke:black;stroke-width:12.5px;stroke-linecap:square;stroke-linejoin:miter;stroke-dasharray:0,12.5,12.5,0;stroke-dashoffset:50;"/>
        </g>
        <g transform="matrix(0.526962,0,0,1.2611,-492.645,-623.859)">
            <path d="M4321.81,1292.16L4357.33,1359.12" style="fill:none;stroke:black;stroke-width:12.5px;stroke-linecap:square;stroke-linejoin:miter;stroke-dasharray:0,12.5,12.5,0;stroke-dashoffset:50;"/>
        </g>
        <g transform="matrix(0.526962,0,0,1.2611,-448.362,-422.261)">
            <path d="M4321.81,1292.16L4357.33,1359.12" style="fill:none;stroke:black;stroke-width:12.5px;stroke-linecap:square;stroke-linejoin:miter;stroke-dasharray:0,12.5,12.5,0;stroke-dashoffset:50;"/>
        </g>
        <g transform="matrix(0.526962,0,0,1.2611,-408.056,-236.432)">
            <path d="M4321.81,1292.16L4357.33,1359.12" style="fill:none;stroke:black;stroke-width:12.5px;stroke-linecap:square;stroke-linejoin:miter;stroke-dasharray:0,12.5,12.5,0;stroke-dashoffset:50;"/>
        </g>
        <g transform="matrix(0.526962,0,0,1.2611,-367.6,-50.5804)">
            <path d="M4321.81,1292.16L4357.33,1359.12" style="fill:none;stroke:black;stroke-width:12.5px;stroke-linecap:square;stroke-linejoin:miter;stroke-dasharray:0,12.5,12.5,0;stroke-dashoffset:50;"/>
        </g>
        <g transform="matrix(0.526962,0,0,1.2611,-327.492,137.764)">
            <path d="M4321.81,1292.16L4357.33,1359.12" style="fill:none;stroke:black;stroke-width:12.5px;stroke-linecap:square;stroke-linejoin:miter;stroke-dasharray:0,12.5,12.5,0;stroke-dashoffset:50;"/>
        </g>
        <g transform="matrix(0.526962,0,0,1.2611,-286.941,321.718)">
            <path d="M4321.81,1292.16L4357.33,1359.12" style="fill:none;stroke:black;stroke-width:12.5px;stroke-linecap:square;stroke-linejoin:miter;stroke-dasharray:0,12.5,12.5,0;stroke-dashoffset:50;"/>
        </g>
        <g transform="matrix(0.526962,0,0,1.2611,-247.411,494.403)">
            <path d="M4321.81,1292.16L4357.33,1359.12" style="fill:none;stroke:black;stroke-width:12.5px;stroke-linecap:square;stroke-linejoin:miter;stroke-dasharray:0,12.5,12.5,0;stroke-dashoffset:50;"/>
        </g>
        <g transform="matrix(0.526962,0,0,1.2611,-208.308,663.859)">
            <path d="M4321.81,1292.16L4357.33,1359.12" style="fill:none;stroke:black;stroke-width:12.5px;stroke-linecap:square;stroke-linejoin:miter;stroke-dasharray:0,12.5,12.5,0;stroke-dashoffset:50;"/>
        </g>
        <g transform="matrix(0.526962,0,0,1.2611,553.762,860.126)">
            <text x="2706.17px" y="1631.48px" style="font-family:'NotoSansJP-Bold', 'Noto Sans JP', sans-serif;font-weight:700;font-size:75px;">her<tspan x="2829.55px " y="1631.48px ">e</tspan></text>
        </g>
    </g>
</svg>
